<svg width="40" height="40" viewBox="0 0 40 40" fill="none" xmlns="http://www.w3.org/2000/svg">
<path d="M0 9.19302C0 4.11585 4.11585 0 9.19302 0H30.807C35.8841 0 40 4.11585 40 9.19302V30.807C40 35.8841 35.8841 40 30.807 40H9.19302C4.11585 40 0 35.8841 0 30.807V9.19302Z" fill="url(#paint0_linear_90_634)"/>
<path d="M20 35.9766C28.8236 35.9766 35.9766 28.8236 35.9766 20C35.9766 11.1764 28.8236 4.02344 20 4.02344C11.1764 4.02344 4.02344 11.1764 4.02344 20C4.02344 28.8236 11.1764 35.9766 20 35.9766Z" fill="#182A5B"/>
<path d="M10.3125 14.2426C11.5753 12.9538 13.0825 11.9299 14.746 11.2309C16.4094 10.5319 18.1957 10.1719 20 10.1719C21.8043 10.1719 23.5906 10.5319 25.254 11.2309C26.9175 11.9299 28.4247 12.9538 29.6875 14.2426" stroke="white" stroke-width="1.9375" stroke-linecap="round"/>
<path d="M12.2501 18.1175C13.2462 17.062 14.4474 16.2211 15.7801 15.6463C17.1127 15.0716 18.5487 14.7751 20.0001 14.7751C21.4514 14.7751 22.8874 15.0716 24.2201 15.6463C25.5527 16.2211 26.754 17.062 27.7501 18.1175" stroke="white" stroke-width="1.9375" stroke-linecap="round"/>
<path d="M15.1565 21.9926C15.7879 21.3482 16.5416 20.8363 17.3733 20.4868C18.205 20.1373 19.0981 19.9573 20.0003 19.9573C20.9025 19.9573 21.7956 20.1373 22.6273 20.4868C23.459 20.8363 24.2126 21.3482 24.844 21.9926" stroke="white" stroke-width="1.9375" stroke-linecap="round"/>
<path d="M18.4775 29.162V28.3939H19.0331C19.4036 28.3939 19.6869 28.3149 19.883 28.1569C20.0791 27.9935 20.1771 27.7456 20.1771 27.4133C20.1771 27.1028 20.0791 26.8849 19.883 26.7596C19.6869 26.6288 19.4036 26.5634 19.0331 26.5634H18.4775V25.7953H21.648V26.351H20.5857C20.7437 26.4545 20.869 26.5961 20.9616 26.7759C21.0597 26.9557 21.1087 27.1681 21.1087 27.4133C21.1087 27.8164 21.0215 28.1487 20.8472 28.4102C20.6729 28.6663 20.4359 28.8569 20.1363 28.9822C19.8421 29.1021 19.5125 29.162 19.1475 29.162H18.4775ZM18.4775 27.6584V27.1518L19.0658 27.1028H21.648V27.6584H18.4775ZM20.3896 30.9924L18.9514 28.9659L19.6051 28.5083L21.4683 30.9924H20.3896Z" fill="#FFB020"/>
<defs>
<linearGradient id="paint0_linear_90_634" x1="0" y1="0" x2="0" y2="40" gradientUnits="userSpaceOnUse">
<stop stop-color="#315996"/>
<stop offset="1" stop-color="#253D7C"/>
</linearGradient>
</defs>
</svg>
